<svg width="797" height="533" viewBox="0 0 797 533" fill="none" xmlns="http://www.w3.org/2000/svg">
<g clip-path="url(#clip0_66_3840)">
<path d="M483.712 523.303C619.997 523.303 730.478 491.686 730.478 452.684C730.478 413.682 619.997 382.065 483.712 382.065C347.426 382.065 236.945 413.682 236.945 452.684C236.945 491.686 347.426 523.303 483.712 523.303Z" fill="#F5F5F5"/>
<path d="M718.495 177.969C718.495 177.969 674.782 221.753 699.459 286.723C724.136 351.692 657.156 459.739 657.156 459.739C657.156 459.739 657.861 459.633 659.208 459.4C748.989 443.525 793.597 340.676 743.673 264.273C725.137 235.87 709.873 202.545 718.495 177.969Z" fill="#2091F9"/>
<path d="M718.495 177.969C718.495 177.969 693.819 231.64 718.495 275.424C743.172 319.207 722.726 442.084 657.156 459.739" stroke="#535461" stroke-width="2" stroke-miterlimit="10"/>
<path d="M796.343 355.061C796.343 355.061 746.461 347.102 741.914 391.881C737.366 436.661 646.027 442.861 646.027 442.861C646.027 442.861 646.62 443.271 647.741 444.005C723.181 493.608 795.3 475.6 784.435 409.734C780.367 385.25 780.691 360.654 796.343 355.061Z" fill="#2091F9"/>
<path opacity="0.2" d="M796.343 355.061C796.343 355.061 746.461 347.102 741.914 391.881C737.366 436.661 646.027 442.861 646.027 442.861C646.027 442.861 646.62 443.271 647.741 444.005C723.181 493.608 795.3 475.6 784.435 409.734C780.367 385.25 780.691 360.654 796.343 355.061Z" fill="#F5F5F5"/>
<path d="M796.344 355.061C796.344 355.061 757.623 363.577 760.803 398.844C763.983 434.111 703.278 476.37 646 442.847" stroke="#535461" stroke-width="2" stroke-miterlimit="10"/>
<path opacity="0.2" d="M226.245 9.35962C220.562 9.16188 214.739 9.35961 209.408 11.3511C194.906 16.7675 188.031 34.4858 190.266 49.8313C192.501 65.1768 201.695 78.5026 211.235 90.7126C220.774 102.923 231.11 114.977 236.341 129.553C238.95 136.834 240.17 144.99 237.519 152.257C233.429 163.464 221.098 169.728 209.26 171.028C197.423 172.327 185.536 169.792 173.656 168.909C168.671 168.556 163.545 168.514 158.85 170.152C153.696 171.939 149.402 175.583 145.454 179.382C130.048 194.282 117.717 214.621 119.712 235.976C121.969 260.184 142.091 279.322 164.13 289.583C171.428 292.987 179.148 295.741 185.571 300.599C202.492 313.41 206.292 337.413 204.607 358.606C202.922 379.798 197.183 401.012 200.377 422.021C204.135 446.456 220.767 468.524 243.201 478.834C263.189 488.015 288.204 487.443 305.951 474.456C314.601 468.1 321.144 459.336 326.834 450.248C335.422 436.536 342.39 421.872 347.598 406.549C350.072 399.268 352.399 391.436 358.173 386.373C361.699 383.259 366.267 381.514 370.787 380.159C384.408 376.077 398.756 374.954 412.504 371.324C426.253 367.694 440.086 360.929 447.559 348.832C458.135 331.664 453.2 309.709 453.249 289.512C453.333 243.497 480.823 202.298 490.969 157.455C494.283 142.794 495.516 126.573 488.113 113.501C483.079 104.582 474.598 98.2265 465.679 93.2832C446.079 82.3796 423.799 77.5281 401.879 72.8037C371.414 66.2502 334.42 65.4028 310.808 44.203C288.148 23.8647 257.147 9.35962 226.245 9.35962Z" fill="#2091F9"/>
<g opacity="0.5">
<path opacity="0.5" d="M336.754 187.468C336.752 176.376 335.018 165.354 331.614 154.799L323.154 128.522C323.154 128.084 323.154 127.653 323.154 127.223C323.415 110.38 310.308 101.976 305.26 102.887C300.092 103.82 285.751 96.6164 285.751 96.6164V96.8141C284.768 95.6804 283.881 94.4662 283.1 93.1843C285.578 91.3768 287.67 89.0915 289.253 86.4626C290.836 83.8337 291.879 80.9143 292.32 77.876C292.76 74.8377 292.59 71.7418 291.82 68.7703C291.049 65.7987 289.692 63.0115 287.831 60.5725C289.381 59.406 290.563 57.8174 291.236 55.9964C292.407 52.6985 291.511 48.9345 289.607 45.9967C288.798 44.7704 287.852 43.6403 286.787 42.6282C285.175 41.0281 283.414 39.5857 281.528 38.3205C276.825 35.0579 271.657 32.2543 266.017 31.2586C265.041 31.0277 264.024 31.0277 263.048 31.2586C262.201 31.601 261.395 32.0368 260.644 32.558C256.781 34.7613 251.972 33.8079 247.516 33.5749C243.06 33.3418 237.646 34.5918 236.235 38.7795C235.798 40.0718 235.827 41.4701 235.53 42.7977C234.825 46.0462 232.322 48.5673 230.391 51.272C228.459 53.9767 227.013 57.6277 228.621 60.5654C229.171 61.5541 230.031 62.4651 230.031 63.595C230.031 64.4071 229.552 65.1345 229.326 65.9113C228.84 67.6768 229.756 69.4422 231.166 70.7204C231.774 71.3766 232.489 71.9236 233.281 72.3376C235.516 73.4816 238.09 73.8347 240.367 74.894C241.504 75.4287 242.547 76.1442 243.455 77.0126C244.568 78.1795 245.438 79.5566 246.014 81.0636C246.59 82.5707 246.861 84.1775 246.811 85.7905L247.284 85.84C247.284 85.9812 247.284 86.1154 247.284 86.2566C247.777 86.3131 248.299 86.3625 248.813 86.3837C249.554 87.5808 250.401 88.7083 251.345 89.7522C251.185 90.3549 251.004 90.9669 250.802 91.5883C249.145 92.7394 235.594 101.779 220.182 99.6036C203.733 97.2802 194.327 169.312 194.327 169.312C193.718 173.431 193.421 177.59 193.439 181.755C193.369 192.347 195.589 206.21 207.963 204.169L214.541 202.001V237.628C214.541 237.628 215.479 247.388 212.193 253.871C208.908 260.354 222.536 258.051 222.536 258.051C222.536 258.051 223.058 258.595 224.017 259.52L223.714 260.375L224.116 260.784C222.323 266.922 219.906 272.859 216.903 278.503L217.291 278.7C217.044 279.173 216.903 279.406 216.903 279.406C216.903 279.406 221.965 281.998 228.931 285.338C234.529 304.293 246.783 348.189 242.75 356.551L242.863 356.791C243.617 358.358 247.833 367.603 246.98 376.07C246.212 383.64 256.675 418.039 260.581 430.531L258.734 430.905L265.312 454.605L263.901 469.943C263.901 469.943 255.913 491.32 274.71 487.139C293.506 482.958 288.338 465.763 288.338 465.763L288.811 430.905C288.811 430.905 286.999 429.895 284.764 428.928C283.227 424.768 279.878 414.938 279.878 408.138C279.878 399.31 273.765 361.197 273.765 361.197V361.12V360.971V360.929L273.73 360.421V360.336C273.73 359.863 273.652 359.213 273.596 358.422V358.38C272.891 348.076 270.776 313.071 272.32 294.823C273.678 293.895 275.09 293.051 276.55 292.294C281.126 303.876 292.921 335.167 292.167 348.295C291.229 364.538 291.934 351.784 292.167 349.708C292.237 349.065 292.287 349.842 292.308 351.586C292.308 351.904 292.308 352.257 292.308 352.631C292.308 353.006 292.308 353.422 292.308 353.853C292.308 354.284 292.308 354.75 292.308 355.265C292.308 355.51 292.308 355.76 292.308 356.014C292.308 356.522 292.308 357.054 292.308 357.61C292.308 357.888 292.308 358.17 292.308 358.457C292.308 359.87 292.308 361.437 292.258 363.069C292.258 363.394 292.258 363.723 292.258 364.057C292.258 365.053 292.258 366.07 292.209 367.101C292.209 368.513 292.153 369.883 292.125 371.303C292.054 374.481 291.962 377.694 291.85 380.702C291.85 381.037 291.838 381.368 291.814 381.698C291.791 382.357 291.765 383.002 291.737 383.633C291.709 384.264 291.68 384.881 291.652 385.483C291.624 386.081 291.593 386.663 291.56 387.227C291.525 387.891 291.483 388.527 291.448 389.134L288.895 388.767L288.353 394.642C287.497 403.971 288.701 413.373 291.878 422.184C292.752 424.599 293.429 426.598 293.577 427.311C294.049 429.634 293.577 446.378 293.577 446.378C293.577 446.378 296.397 468.22 309.56 464.033C315.483 462.147 318.359 456.413 319.734 450.664C321.26 444.001 320.691 437.028 318.105 430.701C316.237 425.997 314.326 419.401 315.673 414.303C318.021 405.475 318.021 392.926 318.021 392.926L316.569 392.722C316.93 392.032 317.258 391.325 317.549 390.603C317.549 390.603 317.076 358.535 321.306 354.354C323.633 352.052 323.422 346.523 322.717 342.003C321.709 335.462 321.473 328.826 322.011 322.23C322.301 318.833 322.717 315.874 323.203 314.822C324.444 312.364 325.685 287.591 320.192 275.671L321.321 275.318L321.144 274.442L321.321 274.385C322.149 276.6 323.09 278.771 324.141 280.889C324.418 281.107 324.737 281.266 325.078 281.356C340.3 278.679 340.914 264.449 340.068 256.681C340.709 256.992 341.062 257.19 341.062 257.19L342.472 236.71C343.917 233.441 344.453 229.267 344.418 224.755C344.481 208.625 336.754 187.468 336.754 187.468ZM319.974 245.679C318.93 236.76 317.485 228.363 317.485 228.363L310.435 203.265V194.127L321.617 235.933L319.974 245.679Z" fill="url(#paint0_linear_66_3840)"/>
</g>
<path d="M288.274 382.771L287.752 388.513C286.929 397.635 288.096 406.828 291.172 415.454C292.011 417.82 292.666 419.769 292.807 420.468C293.259 422.742 292.807 439.09 292.807 439.09C292.807 439.09 295.529 460.438 308.227 456.349C313.938 454.513 316.687 448.899 318.041 443.285C319.509 436.774 318.958 429.969 316.462 423.78C314.657 419.183 312.81 412.721 314.114 407.756C316.384 399.127 316.384 386.867 316.384 386.867L288.274 382.771Z" fill="#5A5773"/>
<path d="M274.672 284.216C274.672 284.216 292.354 327.364 291.445 343.253C290.535 359.142 291.219 346.657 291.445 344.616C291.847 340.979 291.445 384.163 290.084 389.106C290.084 389.106 308.676 402.728 315.931 384.565C315.931 384.565 315.48 353.232 319.555 349.143C321.797 346.897 321.579 341.488 320.916 337.074C319.938 330.689 319.701 324.213 320.211 317.774C320.486 314.455 320.867 311.531 321.36 310.535C322.721 307.809 324.082 276.928 315.917 268.298L274.672 284.216Z" fill="#605D82"/>
<path opacity="0.1" d="M292.355 389.127C293.716 384.134 294.118 340.979 293.716 344.637C293.49 346.678 292.806 359.171 293.716 343.274C294.625 327.378 276.943 284.237 276.943 284.237L316.503 268.997C316.32 268.764 316.129 268.545 315.939 268.341L274.68 284.237C274.68 284.237 292.362 327.385 291.453 343.274C290.543 359.164 291.227 346.678 291.453 344.637C291.855 341 291.453 384.184 290.092 389.127C290.092 389.127 297.516 394.565 304.813 393.986C298.32 393.499 292.355 389.127 292.355 389.127Z" fill="black"/>
<path d="M259.254 424.098L265.599 447.261L264.239 462.246C264.239 462.246 256.532 483.135 274.666 479.046C292.8 474.957 287.815 458.157 287.815 458.157L288.267 424.098C288.267 424.098 281.012 420.009 277.839 420.468C274.666 420.927 259.254 424.098 259.254 424.098Z" fill="#5A5773"/>
<path d="M227.973 273.319C227.973 273.319 248.828 340.986 243.843 351.431C243.843 351.431 248.828 361.424 247.925 370.498C247.023 379.573 262.435 428.173 262.435 428.173L285.11 424.084C285.11 424.084 279.667 410.461 279.667 401.832C279.667 393.202 273.772 355.929 273.772 355.929C273.772 355.929 268.788 287.803 274.682 280.537L227.973 273.319Z" fill="#605D82"/>
<g opacity="0.1">
<path opacity="0.1" d="M272.921 286.073C269.163 301.496 273.316 358.253 273.316 358.253C273.316 358.253 279.21 395.49 279.21 404.155C279.21 410.744 282.376 420.235 283.878 424.359L285.104 424.14C285.104 424.14 279.662 410.518 279.662 401.888C279.662 393.259 273.767 355.986 273.767 355.986C273.767 355.986 269.974 304.116 272.921 286.073Z" fill="black"/>
<path opacity="0.1" d="M243.844 351.431L243.957 351.664C243.992 351.431 244.027 351.184 244.048 350.958C243.988 351.119 243.92 351.277 243.844 351.431Z" fill="black"/>
<path opacity="0.1" d="M273.653 282.768C273.859 281.985 274.205 281.245 274.675 280.586L227.973 273.319C227.973 273.319 228.248 274.202 228.72 275.777L273.653 282.768Z" fill="black"/>
</g>
<path d="M336.788 248.793C336.788 248.793 343.592 274.216 323.188 277.86C322.857 277.774 322.547 277.62 322.278 277.408C322.278 277.408 310.49 254.245 319.557 245.164L336.788 248.793Z" fill="#FAC3CA"/>
<path d="M253.361 79.8657C253.361 79.8657 254.722 98.9328 239.761 108.021C224.8 117.11 271.488 142.081 271.488 142.081L295.975 103.022C295.975 103.022 285.554 104.37 279.208 86.2214L253.361 79.8657Z" fill="#FAC3CA"/>
<path opacity="0.1" d="M243.382 109.37C243.382 109.37 266.508 157.511 287.363 112.096L319.556 271.949C319.556 271.949 269.674 287.394 269.229 294.66C268.785 301.927 218.91 276.045 218.91 276.045C218.91 276.045 229.789 256.06 227.075 243.801C224.36 231.541 243.382 109.37 243.382 109.37Z" fill="black"/>
<path d="M243.382 108.459C243.382 108.459 266.508 156.6 287.363 111.185L319.556 271.045C319.556 271.045 269.674 286.49 269.229 293.756C268.785 301.023 218.91 275.134 218.91 275.134C218.91 275.134 229.789 255.149 227.075 242.889C224.36 230.63 243.382 108.459 243.382 108.459Z" fill="#E1E7EF"/>
<path d="M266.06 436.816C266.06 436.816 260.166 423.646 273.766 423.646C287.366 423.646 285.103 435.453 285.103 435.453L266.06 436.816Z" fill="#5A5773"/>
<path d="M296.892 402.75C296.892 402.75 291.449 388.668 305.056 388.216C318.663 387.764 311.86 400.928 311.86 400.928L296.892 402.75Z" fill="#5A5773"/>
<path opacity="0.1" d="M285.328 98.2266C285.328 98.2266 299.154 105.288 304.146 104.356C309.138 103.424 322.28 112.075 321.377 129.334L329.57 155.082C332.847 165.406 334.512 176.175 334.505 187.009C334.505 187.009 346.294 219.705 339.948 234.239L338.587 254.224C338.587 254.224 328.16 248.32 317.274 250.135L320.016 233.815L307.749 187.482L287.345 137.978L285.328 98.2266Z" fill="black"/>
<path d="M285.328 97.3298C285.328 97.3298 299.154 104.392 304.146 103.46C309.138 102.527 322.28 111.178 321.377 128.437L329.57 154.185C332.847 164.509 334.512 175.279 334.505 186.112C334.505 186.112 346.294 218.809 339.948 233.342L338.587 253.327C338.587 253.327 328.16 247.423 317.274 249.238L319.995 232.89L307.749 186.571L287.366 137.067L285.328 97.3298Z" fill="#67647E"/>
<path opacity="0.1" d="M308.228 152.511V203.83L315.032 228.356C315.032 228.356 319.565 255.149 318.204 263.327C316.844 271.504 295.079 273.319 289.185 266.504C283.291 259.69 286.463 201.535 286.463 201.535L285.328 116.404L286.238 113.678L308.228 152.511Z" fill="black"/>
<path d="M309.158 150.244V201.563L315.961 226.089C315.961 226.089 320.495 252.882 319.134 261.06C317.773 269.237 296.009 271.052 290.114 264.237C284.22 257.423 287.393 199.268 287.393 199.268L286.258 114.116L309.158 150.244Z" fill="#67647E"/>
<path opacity="0.1" d="M217.77 192.934L232.279 238.13L225.476 257.43C225.476 257.43 257.668 291.489 278.072 275.141C278.072 275.141 280.342 205.652 275.802 189.304C271.261 172.956 249.504 117.979 249.504 117.979L244.998 103.467L220.97 117.089L217.77 192.934Z" fill="black"/>
<path d="M216.633 190.66V235.15C216.633 235.15 217.543 244.69 214.363 251.046C211.183 257.402 224.339 255.135 224.339 255.135C224.339 255.135 256.532 289.194 276.936 272.846C276.936 272.846 279.206 203.357 274.666 187.009C270.125 170.66 248.367 115.684 248.367 115.684L243.834 101.15L219.806 114.773L216.633 190.66Z" fill="#67647E"/>
<path opacity="0.1" d="M251.773 93.248C251.773 93.248 237.947 103.467 222.077 101.193C206.206 98.9187 197.139 169.319 197.139 169.319C197.139 169.319 191.245 205.652 210.288 202.474L252.457 188.393C252.457 188.393 243.39 178.852 244.751 166.593L224.34 174.764L225.256 135.711L251.773 93.248Z" fill="black"/>
<path opacity="0.1" d="M198.041 168.408C198.041 168.408 192.147 204.741 211.19 201.563L253.359 187.482C253.359 187.482 244.292 177.948 245.653 165.682L225.256 173.86L198.041 168.408Z" fill="black"/>
<path d="M244.652 170.47C244.652 170.47 258.803 151.833 269.223 160.781C279.644 169.728 248.389 186.126 248.389 186.126L244.652 170.47Z" fill="#FAC3CA"/>
<path d="M251.773 92.3369C251.773 92.3369 237.947 102.555 222.077 100.282C206.206 98.0076 197.139 168.408 197.139 168.408C197.139 168.408 191.245 204.741 210.288 201.563L252.457 187.482C252.457 187.482 243.39 177.941 244.751 165.682L224.34 173.859L225.256 134.8L248.382 115.733L251.773 92.3369Z" fill="#67647E"/>
<path opacity="0.1" d="M279.659 87.1113L253.812 80.7556C253.812 80.7556 255.158 82.281 253.586 88.2483C257.746 93.0292 262.857 99.3778 269.682 99.3778C274.566 99.387 279.321 97.8085 283.233 94.8794C281.773 92.4225 280.575 89.8189 279.659 87.1113Z" fill="black"/>
<path d="M269.229 98.4739C281.752 98.4739 291.903 88.3058 291.903 75.7628C291.903 63.2198 281.752 53.0518 269.229 53.0518C256.706 53.0518 246.555 63.2198 246.555 75.7628C246.555 88.3058 256.706 98.4739 269.229 98.4739Z" fill="#FAC3CA"/>
<path opacity="0.1" d="M277.825 65.9042C283.085 65.0073 288.867 62.6699 290.629 57.6277C291.757 54.4004 290.897 50.7282 289.057 47.854C287.217 44.9798 284.509 42.7694 281.717 40.7921C277.184 37.6001 272.185 34.8601 266.728 33.8997C265.787 33.6744 264.806 33.6744 263.866 33.8997C263.047 34.2352 262.269 34.6615 261.546 35.1708C257.816 37.3247 253.177 36.3926 248.855 36.1666C244.533 35.9406 239.351 37.1623 237.99 41.2511C237.567 42.5152 237.596 43.8782 237.285 45.1776C236.58 48.3554 234.19 50.8271 232.35 53.4753C230.51 56.1235 229.093 59.7039 230.644 62.5569C231.173 63.5244 232.054 64.4141 232.054 65.5158C231.918 66.2988 231.681 67.0608 231.349 67.7827C230.707 70.1272 232.576 72.493 234.733 73.6087C236.89 74.7245 239.372 75.0705 241.572 76.1086C243.631 77.1263 245.355 78.7148 246.538 80.6853C247.722 82.6558 248.316 84.9254 248.249 87.2241C250.251 87.4571 252.585 87.5772 253.938 86.08C254.545 85.4092 254.841 84.5123 255.391 83.799C256.096 82.8669 257.196 82.3161 258.098 81.5675C262.843 77.6623 259.473 72.267 262.159 68.0581C263.569 65.8901 265.811 66.5539 268.082 66.5892C271.344 66.6657 274.606 66.4363 277.825 65.9042Z" fill="black"/>
<path d="M277.372 65.4523C282.632 64.5554 288.413 62.218 290.176 57.1758C291.304 53.9485 290.444 50.2763 288.604 47.4021C286.764 44.5279 284.056 42.3175 281.264 40.3402C276.731 37.1482 271.732 34.4082 266.275 33.4478C265.334 33.2225 264.353 33.2225 263.412 33.4478C262.594 33.7833 261.816 34.2096 261.093 34.7189C257.363 36.8728 252.724 35.9407 248.402 35.7147C244.08 35.4887 238.898 36.7104 237.537 40.7992C237.114 42.0633 237.142 43.4263 236.832 44.7257C236.127 47.9035 233.737 50.3752 231.897 53.0234C230.057 55.6716 228.64 59.252 230.191 62.105C230.719 63.0725 231.601 63.9622 231.601 65.0639C231.465 65.8469 231.228 66.6089 230.896 67.3308C230.254 69.6753 232.122 72.0411 234.28 73.1568C236.437 74.2726 238.919 74.6186 241.119 75.6567C243.186 76.6734 244.917 78.265 246.105 80.2413C247.293 82.2175 247.887 84.4947 247.817 86.8004C249.819 87.0335 252.153 87.1535 253.507 85.6564C254.113 84.9855 254.409 84.0886 254.959 83.3754C255.664 82.4432 256.764 81.8924 257.666 81.1438C262.411 77.2386 259.041 71.8433 261.727 67.6344C263.137 65.4664 265.38 66.1303 267.65 66.1656C270.906 66.2314 274.161 65.9926 277.372 65.4523Z" fill="#4A4347"/>
<path opacity="0.1" d="M304.82 141.841C304.82 141.841 309.805 167.73 307.542 177.722C306.159 183.535 306.364 189.614 308.134 195.321" fill="black"/>
<path opacity="0.1" d="M224.24 152.737C224.24 152.737 222.069 169.997 225.686 173.626L224.24 152.737Z" fill="black"/>
<path d="M350.847 365.434C351.127 365.434 351.396 365.323 351.594 365.124C351.793 364.926 351.904 364.656 351.904 364.375C351.904 364.094 351.793 363.825 351.594 363.626C351.396 363.428 351.127 363.316 350.847 363.316C350.566 363.316 350.297 363.428 350.099 363.626C349.9 363.825 349.789 364.094 349.789 364.375C349.789 364.656 349.9 364.926 350.099 365.124C350.297 365.323 350.566 365.434 350.847 365.434Z" fill="black"/>
<g opacity="0.5">
<path opacity="0.5" d="M676.486 242.028V241.442L484.121 93.2831C484 93.1931 483.853 93.1445 483.702 93.1445C483.551 93.1445 483.404 93.1931 483.282 93.2831L290.91 241.442V471.095H291.277V471.462H676.86V241.809L676.486 242.028Z" fill="url(#paint1_linear_66_3840)"/>
</g>
<path d="M669.847 464.69H297.582V242.946L483.714 99.5896L669.847 242.946V464.69Z" fill="white"/>
<path d="M656.449 451.547H310.977V245.764L483.713 112.725L656.449 245.764V451.547Z" fill="#E0E0E0"/>
<path d="M542.316 109.65L331.578 164.986L401.843 433.447L612.582 378.11L542.316 109.65Z" fill="#2091F9"/>
<path d="M593.699 150.435H375.84V427.968H593.699V150.435Z" fill="#F5F5F5"/>
<path opacity="0.05" d="M299.344 243.299L485.476 354.171L299.344 465.043V243.299Z" fill="black"/>
<path d="M297.934 243.299L484.066 354.171L297.934 465.043V243.299Z" fill="white"/>
<path opacity="0.05" d="M668.789 243.299L482.656 354.171L668.789 465.043V243.299Z" fill="black"/>
<path d="M670.199 243.299L484.066 354.171L670.199 465.043V243.299Z" fill="white"/>
<path opacity="0.05" d="M297.934 461.512L484.066 316.037L670.198 461.512H297.934Z" fill="black"/>
<path d="M297.934 465.042L484.066 319.567L670.198 465.042H297.934Z" fill="white"/>
<path d="M335.758 481.885C335.758 481.885 326.409 450.107 337.514 426.704C342.232 416.921 343.654 405.869 341.568 395.208C340.538 390.155 339.049 385.207 337.119 380.427" stroke="#535461" stroke-width="2" stroke-miterlimit="10"/>
<path d="M344.023 365.639C344.023 369.537 336.972 380.829 336.972 380.829C336.972 380.829 329.922 369.53 329.922 365.639C329.922 363.766 330.665 361.97 331.987 360.646C333.309 359.321 335.102 358.577 336.972 358.577C338.842 358.577 340.636 359.321 341.958 360.646C343.28 361.97 344.023 363.766 344.023 365.639Z" fill="#6C63FF"/>
<path d="M355.692 387.221C353.577 390.49 341.535 396.14 341.535 396.14C341.535 396.14 341.754 382.821 343.869 379.551C344.923 378.073 346.506 377.058 348.289 376.718C350.071 376.379 351.916 376.74 353.439 377.728C354.962 378.716 356.046 380.254 356.466 382.022C356.885 383.79 356.608 385.652 355.692 387.221Z" fill="#6C63FF"/>
<path d="M355.154 424.091C351.678 425.842 338.438 424.634 338.438 424.634C338.438 424.634 345.34 413.251 348.809 411.499C349.639 411.034 350.555 410.742 351.5 410.64C352.446 410.539 353.403 410.63 354.313 410.909C355.222 411.188 356.067 411.648 356.794 412.262C357.522 412.876 358.117 413.631 358.546 414.481C358.974 415.332 359.227 416.261 359.287 417.212C359.348 418.163 359.216 419.116 358.899 420.015C358.582 420.913 358.087 421.738 357.443 422.44C356.8 423.141 356.021 423.705 355.154 424.098V424.091Z" fill="#6C63FF"/>
<path d="M348.499 451.908C345.368 454.224 332.113 455.269 332.113 455.269C332.113 455.269 336.992 442.882 340.123 440.566C341.629 439.56 343.464 439.172 345.248 439.484C347.031 439.796 348.627 440.783 349.704 442.241C350.781 443.699 351.256 445.516 351.032 447.316C350.807 449.115 349.9 450.759 348.499 451.908Z" fill="#6C63FF"/>
<path d="M326.722 396.888C329.542 399.6 342.508 402.418 342.508 402.418C342.508 402.418 339.328 389.487 336.536 386.776C335.178 385.573 333.41 384.941 331.599 385.01C329.788 385.079 328.073 385.844 326.81 387.146C325.547 388.448 324.833 390.188 324.817 392.003C324.8 393.818 325.483 395.57 326.722 396.895V396.888Z" fill="#6C63FF"/>
<path d="M319.346 429.521C322.822 431.273 336.063 430.065 336.063 430.065C336.063 430.065 329.161 418.681 325.692 416.93C324.035 416.18 322.154 416.1 320.44 416.707C318.726 417.313 317.313 418.559 316.494 420.185C315.675 421.81 315.515 423.689 316.046 425.43C316.578 427.171 317.76 428.639 319.346 429.528V429.521Z" fill="#6C63FF"/>
<path d="M316.524 462.218C319.655 464.534 332.91 465.579 332.91 465.579C332.91 465.579 328.031 453.193 324.9 450.876C324.161 450.271 323.307 449.823 322.39 449.558C321.472 449.293 320.511 449.217 319.564 449.336C318.616 449.454 317.703 449.764 316.879 450.247C316.054 450.73 315.337 451.375 314.769 452.144C314.201 452.912 313.795 453.789 313.576 454.719C313.356 455.65 313.328 456.615 313.492 457.557C313.656 458.499 314.009 459.398 314.531 460.199C315.052 461 315.73 461.687 316.524 462.218Z" fill="#6C63FF"/>
<path opacity="0.5" d="M475.957 163.147H388.531V170.209H475.957V163.147Z" fill="#6C63FF"/>
<path opacity="0.5" d="M577.484 191.394H388.531V198.456H577.484V191.394Z" fill="#6C63FF"/>
<path opacity="0.5" d="M577.484 209.755H388.531V216.817H577.484V209.755Z" fill="#6C63FF"/>
<path opacity="0.4" d="M577.484 228.116H388.531V235.178H577.484V228.116Z" fill="#6C63FF"/>
<path opacity="0.4" d="M577.484 246.477H388.531V253.539H577.484V246.477Z" fill="#6C63FF"/>
<path opacity="0.3" d="M496.403 264.838H388.531V271.9H496.403V264.838Z" fill="#6C63FF"/>
<path opacity="0.3" d="M535.886 283.199H388.531V290.261H535.886V283.199Z" fill="#6C63FF"/>
</g>
<defs>
<linearGradient id="paint0_linear_66_3840" x1="193.446" y1="259.421" x2="344.34" y2="259.421" gradientUnits="userSpaceOnUse">
<stop stop-color="#808080" stop-opacity="0.25"/>
<stop offset="0.54" stop-color="#808080" stop-opacity="0.12"/>
<stop offset="1" stop-color="#808080" stop-opacity="0.1"/>
</linearGradient>
<linearGradient id="paint1_linear_66_3840" x1="246075" y1="280256" x2="246075" y2="77572.5" gradientUnits="userSpaceOnUse">
<stop stop-color="#808080" stop-opacity="0.25"/>
<stop offset="0.54" stop-color="#808080" stop-opacity="0.12"/>
<stop offset="1" stop-color="#808080" stop-opacity="0.1"/>
</linearGradient>
<clipPath id="clip0_66_3840">
<rect width="677" height="514" fill="white" transform="translate(119.5 9.30322)"/>
</clipPath>
</defs>
</svg>
